<svg width="151" height="152" viewBox="0 0 151 152" fill="none" xmlns="http://www.w3.org/2000/svg">
<circle cx="75" cy="76" r="75" fill="#EE9E9E"/>
<path d="M90.5 149.5L73 77.5L2.5 95.5L4 100.5L6 105.5C9.30462 113.431 14.0527 120.68 20.0029 126.878L23 130L28 134.5C32.3127 138.149 37.1084 141.186 42.2515 143.523L45.5 145L48.1751 146.115C54.355 148.69 60.8939 150.299 67.5629 150.888C72.1746 151.295 76.8164 151.21 81.4103 150.636L90.5 149.5Z" fill="#DD62BA"/>
<path d="M73 77.5V1C78.6438 0.66801 84.307 1.05401 89.8535 2.14873L90.9265 2.36049C109.245 5.97594 125.422 16.6138 136 32L138.66 36.2969C145.441 47.2506 149.319 59.9017 149.912 72.7707C150.298 81.1335 149.271 89.596 146.866 97.6147C145.293 102.855 143.146 107.906 140.464 112.675L140 113.5L135.5 120.5L73 77.5Z" fill="#828BE0"/>
<path d="M135.5 120.5L73 77.5L90.5 149.5L100 147L102.466 145.962C107.148 143.99 111.673 141.663 116 139L116.711 138.511C121.555 135.181 126.012 131.32 130 127L135.5 120.5Z" fill="#6AC579"/>
<path d="M73 1V77.5L36 12C41.312 8.68001 47.0227 6.04547 52.9961 4.15913L53.5 4L58.5 2.5L63 1.5L68 1H73Z" fill="#F1F394"/>
<circle cx="75" cy="76" r="55" fill="white"/>
<path d="M36.0322 60.127H32.833V69H31.5273V60.127H28.335V59.0469H36.0322V60.127ZM36.292 65.2334C36.292 64.5088 36.4333 63.8571 36.7158 63.2783C37.0029 62.6995 37.3994 62.2529 37.9053 61.9385C38.4157 61.624 38.9967 61.4668 39.6484 61.4668C40.6556 61.4668 41.4691 61.8154 42.0889 62.5127C42.7132 63.21 43.0254 64.1374 43.0254 65.2949V65.3838C43.0254 66.1038 42.8864 66.751 42.6084 67.3252C42.335 67.8949 41.9408 68.3392 41.4258 68.6582C40.9154 68.9772 40.3275 69.1367 39.6621 69.1367C38.6595 69.1367 37.846 68.7881 37.2217 68.0908C36.6019 67.3936 36.292 66.4707 36.292 65.3223V65.2334ZM37.5635 65.3838C37.5635 66.2041 37.7526 66.8626 38.1309 67.3594C38.5137 67.8561 39.0241 68.1045 39.6621 68.1045C40.3047 68.1045 40.8151 67.8538 41.1934 67.3525C41.5716 66.8467 41.7607 66.1403 41.7607 65.2334C41.7607 64.4222 41.5671 63.766 41.1797 63.2646C40.7969 62.7588 40.2865 62.5059 39.6484 62.5059C39.0241 62.5059 38.5205 62.7542 38.1377 63.251C37.7549 63.7477 37.5635 64.4587 37.5635 65.3838ZM46.3271 59.8125V61.6035H47.708V62.5811H46.3271V67.168C46.3271 67.4642 46.3887 67.6875 46.5117 67.8379C46.6348 67.9837 46.8444 68.0566 47.1406 68.0566C47.2865 68.0566 47.487 68.0293 47.7422 67.9746V69C47.4095 69.0911 47.0859 69.1367 46.7715 69.1367C46.2064 69.1367 45.7803 68.9658 45.4932 68.624C45.2061 68.2822 45.0625 67.7969 45.0625 67.168V62.5811H43.7158V61.6035H45.0625V59.8125H46.3271ZM53.7578 69C53.6849 68.8542 53.6257 68.5944 53.5801 68.2207C52.9922 68.8314 52.2904 69.1367 51.4746 69.1367C50.7454 69.1367 50.1462 68.9316 49.6768 68.5215C49.2119 68.1068 48.9795 67.5827 48.9795 66.9492C48.9795 66.179 49.2712 65.582 49.8545 65.1582C50.4424 64.7298 51.2673 64.5156 52.3291 64.5156H53.5596V63.9346C53.5596 63.4925 53.4274 63.1416 53.1631 62.8818C52.8988 62.6175 52.5091 62.4854 51.9941 62.4854C51.543 62.4854 51.1647 62.5993 50.8594 62.8271C50.554 63.055 50.4014 63.3307 50.4014 63.6543H49.1299C49.1299 63.2852 49.2598 62.9297 49.5195 62.5879C49.7839 62.2415 50.1393 61.9681 50.5859 61.7676C51.0371 61.5671 51.5316 61.4668 52.0693 61.4668C52.9215 61.4668 53.5892 61.681 54.0723 62.1094C54.5553 62.5332 54.806 63.1188 54.8242 63.8662V67.2705C54.8242 67.9495 54.9108 68.4896 55.084 68.8906V69H53.7578ZM51.6592 68.0361C52.0557 68.0361 52.4316 67.9336 52.7871 67.7285C53.1426 67.5234 53.4001 67.2568 53.5596 66.9287V65.4111H52.5684C51.0189 65.4111 50.2441 65.8646 50.2441 66.7715C50.2441 67.168 50.3763 67.4779 50.6406 67.7012C50.9049 67.9245 51.2445 68.0361 51.6592 68.0361ZM58.1807 69H56.916V58.5H58.1807V69ZM66.8145 64.5635C65.6888 64.2399 64.8685 63.8434 64.3535 63.374C63.8431 62.9001 63.5879 62.3167 63.5879 61.624C63.5879 60.8402 63.9001 60.193 64.5244 59.6826C65.1533 59.1676 65.9691 58.9102 66.9717 58.9102C67.6553 58.9102 68.2637 59.0423 68.7969 59.3066C69.3346 59.571 69.7493 59.9355 70.041 60.4004C70.3372 60.8652 70.4854 61.3734 70.4854 61.9248H69.166C69.166 61.3232 68.9746 60.8516 68.5918 60.5098C68.209 60.1634 67.6689 59.9902 66.9717 59.9902C66.3245 59.9902 65.8187 60.1338 65.4541 60.4209C65.0941 60.7035 64.9141 61.0977 64.9141 61.6035C64.9141 62.0091 65.085 62.3532 65.4268 62.6357C65.7731 62.9137 66.3587 63.1689 67.1836 63.4014C68.013 63.6338 68.6602 63.8913 69.125 64.1738C69.5944 64.4518 69.9408 64.7777 70.1641 65.1514C70.3919 65.5251 70.5059 65.9648 70.5059 66.4707C70.5059 67.2773 70.1914 67.9245 69.5625 68.4121C68.9336 68.8952 68.0928 69.1367 67.04 69.1367C66.3564 69.1367 65.7184 69.0068 65.126 68.7471C64.5335 68.4827 64.0755 68.1227 63.752 67.667C63.4329 67.2113 63.2734 66.694 63.2734 66.1152H64.5928C64.5928 66.7168 64.8138 67.193 65.2559 67.5439C65.7025 67.8903 66.2972 68.0635 67.04 68.0635C67.7327 68.0635 68.2637 67.9222 68.6328 67.6396C69.002 67.3571 69.1865 66.972 69.1865 66.4844C69.1865 65.9967 69.0156 65.6208 68.6738 65.3564C68.332 65.0876 67.7122 64.8232 66.8145 64.5635ZM78.2441 65.3838C78.2441 66.5094 77.9867 67.4163 77.4717 68.1045C76.9567 68.7926 76.2594 69.1367 75.3799 69.1367C74.4821 69.1367 73.7757 68.8519 73.2607 68.2822V71.8438H71.9961V61.6035H73.1514L73.2129 62.4238C73.7279 61.7858 74.4434 61.4668 75.3594 61.4668C76.248 61.4668 76.9499 61.8018 77.4648 62.4717C77.9844 63.1416 78.2441 64.0736 78.2441 65.2676V65.3838ZM76.9795 65.2402C76.9795 64.4062 76.8018 63.7477 76.4463 63.2646C76.0908 62.7816 75.6032 62.54 74.9834 62.54C74.2178 62.54 73.6436 62.8796 73.2607 63.5586V67.0928C73.639 67.7673 74.2178 68.1045 74.9971 68.1045C75.6032 68.1045 76.084 67.8652 76.4395 67.3867C76.7995 66.9036 76.9795 66.1882 76.9795 65.2402ZM82.9268 69.1367C81.9242 69.1367 81.1084 68.8086 80.4795 68.1523C79.8506 67.4915 79.5361 66.6097 79.5361 65.5068V65.2744C79.5361 64.5407 79.6751 63.8867 79.9531 63.3125C80.2357 62.7337 80.6276 62.2826 81.1289 61.959C81.6348 61.6309 82.1816 61.4668 82.7695 61.4668C83.7311 61.4668 84.4785 61.7835 85.0117 62.417C85.5449 63.0505 85.8115 63.9574 85.8115 65.1377V65.6641H80.8008C80.819 66.3932 81.0309 66.9834 81.4365 67.4346C81.8467 67.8812 82.3662 68.1045 82.9951 68.1045C83.4417 68.1045 83.82 68.0133 84.1299 67.8311C84.4398 67.6488 84.7109 67.4072 84.9434 67.1064L85.7158 67.708C85.096 68.6605 84.1663 69.1367 82.9268 69.1367ZM82.7695 62.5059C82.2591 62.5059 81.8307 62.6927 81.4844 63.0664C81.138 63.4355 80.9238 63.9551 80.8418 64.625H84.5469V64.5293C84.5104 63.8867 84.3372 63.39 84.0273 63.0391C83.7174 62.6836 83.2982 62.5059 82.7695 62.5059ZM88.4775 61.6035L88.5186 62.5332C89.0837 61.8223 89.8219 61.4668 90.7334 61.4668C92.2965 61.4668 93.085 62.3486 93.0986 64.1123V69H91.834V64.1055C91.8294 63.5723 91.7064 63.1781 91.4648 62.9229C91.2279 62.6676 90.8564 62.54 90.3506 62.54C89.9404 62.54 89.5804 62.6494 89.2705 62.8682C88.9606 63.0869 88.7191 63.374 88.5459 63.7295V69H87.2812V61.6035H88.4775ZM94.6982 65.2402C94.6982 64.1055 94.9671 63.194 95.5049 62.5059C96.0426 61.8132 96.7467 61.4668 97.6172 61.4668C98.4831 61.4668 99.1689 61.763 99.6748 62.3555V58.5H100.939V69H99.7773L99.7158 68.207C99.21 68.8268 98.5059 69.1367 97.6035 69.1367C96.7467 69.1367 96.0472 68.7858 95.5049 68.084C94.9671 67.3822 94.6982 66.4661 94.6982 65.3359V65.2402ZM95.9629 65.3838C95.9629 66.2223 96.1361 66.8786 96.4824 67.3525C96.8288 67.8265 97.3073 68.0635 97.918 68.0635C98.7201 68.0635 99.3057 67.7035 99.6748 66.9834V63.5859C99.2965 62.8887 98.7155 62.54 97.9316 62.54C97.3118 62.54 96.8288 62.7793 96.4824 63.2578C96.1361 63.7363 95.9629 64.445 95.9629 65.3838ZM104.282 69H103.018V61.6035H104.282V69ZM102.915 59.6416C102.915 59.4365 102.977 59.2633 103.1 59.1221C103.227 58.9808 103.414 58.9102 103.66 58.9102C103.906 58.9102 104.093 58.9808 104.221 59.1221C104.348 59.2633 104.412 59.4365 104.412 59.6416C104.412 59.8467 104.348 60.0176 104.221 60.1543C104.093 60.291 103.906 60.3594 103.66 60.3594C103.414 60.3594 103.227 60.291 103.1 60.1543C102.977 60.0176 102.915 59.8467 102.915 59.6416ZM107.509 61.6035L107.55 62.5332C108.115 61.8223 108.853 61.4668 109.765 61.4668C111.328 61.4668 112.116 62.3486 112.13 64.1123V69H110.865V64.1055C110.861 63.5723 110.738 63.1781 110.496 62.9229C110.259 62.6676 109.888 62.54 109.382 62.54C108.972 62.54 108.612 62.6494 108.302 62.8682C107.992 63.0869 107.75 63.374 107.577 63.7295V69H106.312V61.6035H107.509ZM113.736 65.2402C113.736 64.0872 114.003 63.1712 114.536 62.4922C115.069 61.8086 115.776 61.4668 116.655 61.4668C117.558 61.4668 118.262 61.7858 118.768 62.4238L118.829 61.6035H119.984V68.8223C119.984 69.7793 119.7 70.5335 119.13 71.085C118.565 71.6364 117.804 71.9121 116.847 71.9121C116.313 71.9121 115.792 71.7982 115.281 71.5703C114.771 71.3424 114.381 71.0303 114.112 70.6338L114.769 69.875C115.311 70.5449 115.974 70.8799 116.758 70.8799C117.373 70.8799 117.852 70.7067 118.193 70.3604C118.54 70.014 118.713 69.5264 118.713 68.8975V68.2617C118.207 68.8451 117.517 69.1367 116.642 69.1367C115.776 69.1367 115.074 68.7881 114.536 68.0908C114.003 67.3936 113.736 66.4434 113.736 65.2402ZM115.008 65.3838C115.008 66.2178 115.179 66.874 115.521 67.3525C115.862 67.8265 116.341 68.0635 116.956 68.0635C117.754 68.0635 118.339 67.7012 118.713 66.9766V63.5996C118.326 62.8932 117.744 62.54 116.97 62.54C116.354 62.54 115.874 62.7793 115.527 63.2578C115.181 63.7363 115.008 64.445 115.008 65.3838Z" fill="black"/>
<path d="M52.6289 88.7559C52.6289 88.4355 52.5391 88.1816 52.3594 87.9941C52.1836 87.8027 51.8828 87.627 51.457 87.4668C51.0312 87.3066 50.6641 87.1484 50.3555 86.9922C50.0469 86.832 49.7812 86.6504 49.5586 86.4473C49.3398 86.2402 49.168 85.998 49.043 85.7207C48.9219 85.4434 48.8613 85.1133 48.8613 84.7305C48.8613 84.0703 49.0723 83.5293 49.4941 83.1074C49.916 82.6855 50.4766 82.4395 51.1758 82.3691V81.1152H52.1133V82.3867C52.8047 82.4844 53.3457 82.7734 53.7363 83.2539C54.127 83.7305 54.3223 84.3496 54.3223 85.1113H52.6289C52.6289 84.6426 52.5312 84.293 52.3359 84.0625C52.1445 83.8281 51.8867 83.7109 51.5625 83.7109C51.2422 83.7109 50.9941 83.8027 50.8184 83.9863C50.6426 84.166 50.5547 84.416 50.5547 84.7363C50.5547 85.0332 50.6406 85.2715 50.8125 85.4512C50.9844 85.6309 51.3027 85.8145 51.7676 86.002C52.2363 86.1895 52.6211 86.3672 52.9219 86.5352C53.2227 86.6992 53.4766 86.8867 53.6836 87.0977C53.8906 87.3047 54.0488 87.543 54.1582 87.8125C54.2676 88.0781 54.3223 88.3887 54.3223 88.7441C54.3223 89.4082 54.1152 89.9473 53.7012 90.3613C53.2871 90.7754 52.7168 91.0195 51.9902 91.0938V92.2598H51.0586V91.0996C50.2578 91.0137 49.6367 90.7305 49.1953 90.25C48.7578 89.7656 48.5391 89.123 48.5391 88.3223H50.2324C50.2324 88.7871 50.3418 89.1445 50.5605 89.3945C50.7832 89.6406 51.1016 89.7637 51.5156 89.7637C51.8594 89.7637 52.1309 89.6738 52.3301 89.4941C52.5293 89.3105 52.6289 89.0645 52.6289 88.7559ZM59.584 91H57.8906V84.4727L55.8691 85.0996V83.7227L59.4023 82.457H59.584V91ZM62.8711 93.1387L61.9863 92.6758L62.1973 92.2949C62.459 91.8184 62.5938 91.3438 62.6016 90.8711V89.5586H64.0312L64.0254 90.7305C64.0215 91.1641 63.9121 91.6016 63.6973 92.043C63.4824 92.4844 63.207 92.8496 62.8711 93.1387ZM71.1387 91H65.291V89.8398L68.0508 86.8984C68.4297 86.4844 68.709 86.123 68.8887 85.8145C69.0723 85.5059 69.1641 85.2129 69.1641 84.9355C69.1641 84.5566 69.0684 84.2598 68.877 84.0449C68.6855 83.8262 68.4121 83.7168 68.0566 83.7168C67.6738 83.7168 67.3711 83.8496 67.1484 84.1152C66.9297 84.377 66.8203 84.7227 66.8203 85.1523H65.1211C65.1211 84.6328 65.2441 84.1582 65.4902 83.7285C65.7402 83.2988 66.0918 82.9629 66.5449 82.7207C66.998 82.4746 67.5117 82.3516 68.0859 82.3516C68.9648 82.3516 69.6465 82.5625 70.1309 82.9844C70.6191 83.4062 70.8633 84.002 70.8633 84.7715C70.8633 85.1934 70.7539 85.623 70.5352 86.0605C70.3164 86.498 69.9414 87.0078 69.4102 87.5898L67.4707 89.6348H71.1387V91ZM73.9043 85.9844H74.8066C75.2363 85.9844 75.5547 85.877 75.7617 85.6621C75.9688 85.4473 76.0723 85.1621 76.0723 84.8066C76.0723 84.4629 75.9688 84.1953 75.7617 84.0039C75.5586 83.8125 75.2773 83.7168 74.918 83.7168C74.5938 83.7168 74.3223 83.8066 74.1035 83.9863C73.8848 84.1621 73.7754 84.3926 73.7754 84.6777H72.082C72.082 84.2324 72.2012 83.834 72.4395 83.4824C72.6816 83.127 73.0176 82.8496 73.4473 82.6504C73.8809 82.4512 74.3574 82.3516 74.877 82.3516C75.7793 82.3516 76.4863 82.5684 76.998 83.002C77.5098 83.4316 77.7656 84.0254 77.7656 84.7832C77.7656 85.1738 77.6465 85.5332 77.4082 85.8613C77.1699 86.1895 76.8574 86.4414 76.4707 86.6172C76.9512 86.7891 77.3086 87.0469 77.543 87.3906C77.7812 87.7344 77.9004 88.1406 77.9004 88.6094C77.9004 89.3672 77.623 89.9746 77.0684 90.4316C76.5176 90.8887 75.7871 91.1172 74.877 91.1172C74.0254 91.1172 73.3281 90.8926 72.7852 90.4434C72.2461 89.9941 71.9766 89.4004 71.9766 88.6621H73.6699C73.6699 88.9824 73.7891 89.2441 74.0273 89.4473C74.2695 89.6504 74.5664 89.752 74.918 89.752C75.3203 89.752 75.6348 89.6465 75.8613 89.4355C76.0918 89.2207 76.207 88.9375 76.207 88.5859C76.207 87.7344 75.7383 87.3086 74.8008 87.3086H73.9043V85.9844ZM83.0332 87.5898C82.5918 88.0234 82.0762 88.2402 81.4863 88.2402C80.7324 88.2402 80.1289 87.9824 79.6758 87.4668C79.2227 86.9473 78.9961 86.248 78.9961 85.3691C78.9961 84.8105 79.1172 84.2988 79.3594 83.834C79.6055 83.3652 79.9473 83.002 80.3848 82.7441C80.8223 82.4824 81.3145 82.3516 81.8613 82.3516C82.4238 82.3516 82.9238 82.4922 83.3613 82.7734C83.7988 83.0547 84.1387 83.459 84.3809 83.9863C84.623 84.5137 84.7461 85.1172 84.75 85.7969V86.4238C84.75 87.8457 84.3965 88.9629 83.6895 89.7754C82.9824 90.5879 81.9805 91.0215 80.6836 91.0762L80.2676 91.082V89.6699L80.6426 89.6641C82.1152 89.5977 82.9121 88.9062 83.0332 87.5898ZM81.9023 86.9453C82.1758 86.9453 82.4102 86.875 82.6055 86.7344C82.8047 86.5938 82.9551 86.4238 83.0566 86.2246V85.5273C83.0566 84.9531 82.9473 84.5078 82.7285 84.1914C82.5098 83.875 82.2168 83.7168 81.8496 83.7168C81.5098 83.7168 81.2305 83.873 81.0117 84.1855C80.793 84.4941 80.6836 84.8828 80.6836 85.3516C80.6836 85.8164 80.7891 86.1992 81 86.5C81.2148 86.7969 81.5156 86.9453 81.9023 86.9453ZM86.1211 90.168C86.1211 89.8984 86.2109 89.6797 86.3906 89.5117C86.5742 89.3438 86.8027 89.2598 87.0762 89.2598C87.3535 89.2598 87.582 89.3438 87.7617 89.5117C87.9453 89.6797 88.0371 89.8984 88.0371 90.168C88.0371 90.4336 87.9473 90.6504 87.7676 90.8184C87.5879 90.9824 87.3574 91.0645 87.0762 91.0645C86.7988 91.0645 86.5703 90.9824 86.3906 90.8184C86.2109 90.6504 86.1211 90.4336 86.1211 90.168ZM95.1973 87.4727C95.1973 88.6523 94.9531 89.5547 94.4648 90.1797C93.9766 90.8047 93.2617 91.1172 92.3203 91.1172C91.3906 91.1172 90.6797 90.8105 90.1875 90.1973C89.6953 89.584 89.4434 88.7051 89.4316 87.5605V85.9902C89.4316 84.7988 89.6777 83.8945 90.1699 83.2773C90.666 82.6602 91.3789 82.3516 92.3086 82.3516C93.2383 82.3516 93.9492 82.6582 94.4414 83.2715C94.9336 83.8809 95.1855 84.7578 95.1973 85.9023V87.4727ZM93.5039 85.75C93.5039 85.043 93.4062 84.5293 93.2109 84.209C93.0195 83.8848 92.7188 83.7227 92.3086 83.7227C91.9102 83.7227 91.6152 83.877 91.4238 84.1855C91.2363 84.4902 91.1367 84.9688 91.125 85.6211V87.6953C91.125 88.3906 91.2188 88.9082 91.4062 89.248C91.5977 89.584 91.9023 89.752 92.3203 89.752C92.7344 89.752 93.0332 89.5898 93.2168 89.2656C93.4004 88.9414 93.4961 88.4453 93.5039 87.7773V85.75ZM100.307 87.5898C99.8652 88.0234 99.3496 88.2402 98.7598 88.2402C98.0059 88.2402 97.4023 87.9824 96.9492 87.4668C96.4961 86.9473 96.2695 86.248 96.2695 85.3691C96.2695 84.8105 96.3906 84.2988 96.6328 83.834C96.8789 83.3652 97.2207 83.002 97.6582 82.7441C98.0957 82.4824 98.5879 82.3516 99.1348 82.3516C99.6973 82.3516 100.197 82.4922 100.635 82.7734C101.072 83.0547 101.412 83.459 101.654 83.9863C101.896 84.5137 102.02 85.1172 102.023 85.7969V86.4238C102.023 87.8457 101.67 88.9629 100.963 89.7754C100.256 90.5879 99.2539 91.0215 97.957 91.0762L97.541 91.082V89.6699L97.916 89.6641C99.3887 89.5977 100.186 88.9062 100.307 87.5898ZM99.1758 86.9453C99.4492 86.9453 99.6836 86.875 99.8789 86.7344C100.078 86.5938 100.229 86.4238 100.33 86.2246V85.5273C100.33 84.9531 100.221 84.5078 100.002 84.1914C99.7832 83.875 99.4902 83.7168 99.123 83.7168C98.7832 83.7168 98.5039 83.873 98.2852 84.1855C98.0664 84.4941 97.957 84.8828 97.957 85.3516C97.957 85.8164 98.0625 86.1992 98.2734 86.5C98.4883 86.7969 98.7891 86.9453 99.1758 86.9453Z" fill="black"/>
</svg>
