<svg width="28" height="28" viewBox="0 0 28 28" fill="none" xmlns="http://www.w3.org/2000/svg">
<g clip-path="url(#clip0)">
<path d="M14.7189 13.1796H13.281C12.5442 13.1796 11.9447 12.5802 11.9447 11.8434C11.9447 11.1065 12.5442 10.507 13.281 10.507H16.1567C16.6097 10.507 16.977 10.1397 16.977 9.6867C16.977 9.23367 16.6097 8.86638 16.1567 8.86638H14.8203V7.52993C14.8203 7.07685 14.453 6.70956 13.9999 6.70956C13.5469 6.70956 13.1796 7.07684 13.1796 7.52988V8.86885C11.585 8.9226 10.3041 10.2358 10.3041 11.8433C10.3041 13.4847 11.6396 14.8202 13.281 14.8202H14.7189C15.4558 14.8202 16.0553 15.4197 16.0553 16.1567C16.0553 16.8935 15.4558 17.493 14.7189 17.493H11.8433C11.3903 17.493 11.023 17.8603 11.023 18.3133C11.023 18.7664 11.3903 19.1336 11.8433 19.1336H13.1796V20.47C13.1796 20.9231 13.5469 21.2903 13.9999 21.2903C14.453 21.2903 14.8203 20.9231 14.8203 20.47V19.1311C16.4149 19.0774 17.6959 17.7643 17.6959 16.1567C17.6959 14.5151 16.3604 13.1796 14.7189 13.1796Z" fill="black"/>
<path d="M24.2135 17.5616C23.7985 17.3802 23.3148 17.5697 23.1334 17.9848C21.5465 21.6164 17.9614 23.9629 13.9998 23.9629C9.10535 23.9629 4.95725 20.3321 4.17144 15.6246L6.34724 17.0784C6.72393 17.3301 7.23334 17.2288 7.48507 16.852C7.73679 16.4754 7.6354 15.9659 7.25872 15.7142L3.67215 13.3178C3.49124 13.1969 3.26976 13.153 3.05637 13.1953C2.84297 13.2377 2.65523 13.3632 2.53432 13.5441L0.138295 17.1307C-0.113377 17.5074 -0.0119866 18.0168 0.364701 18.2685C0.504701 18.3621 0.663021 18.4068 0.819646 18.4068C1.08439 18.4068 1.34437 18.2788 1.50247 18.0422L2.63407 16.3484C3.09454 18.5972 4.21355 20.66 5.88852 22.2976C8.06913 24.4295 10.9497 25.6036 13.9999 25.6036C18.6135 25.6036 22.7888 22.8709 24.6368 18.6418C24.8182 18.2266 24.6287 17.743 24.2135 17.5616Z" fill="black"/>
<path d="M27.6354 9.7316C27.2586 9.47992 26.7493 9.58126 26.4976 9.95795L25.3658 11.6517C24.9054 9.40282 23.7863 7.34 22.1114 5.70239C19.9308 3.5705 17.0501 2.39636 14 2.39636C9.38636 2.39636 5.21108 5.1291 3.36308 9.35819C3.18169 9.77332 3.37118 10.2569 3.78631 10.4383C4.20144 10.6197 4.68504 10.4302 4.8665 10.0151C6.45336 6.38363 10.0385 4.03699 14 4.03699C18.8944 4.03699 23.0425 7.66785 23.8285 12.3753L21.6527 10.9216C21.2759 10.6698 20.7666 10.7713 20.5148 11.1479C20.2632 11.5247 20.3645 12.0341 20.7412 12.2858L24.3277 14.6821C24.4677 14.7756 24.626 14.8204 24.7826 14.8204C25.0474 14.8204 25.3073 14.6924 25.4654 14.4557L27.8617 10.8695C28.1134 10.4927 28.0121 9.98327 27.6354 9.7316Z" fill="black"/>
</g>
<defs>
<clipPath id="clip0">
<rect width="28" height="28" fill="white"/>
</clipPath>
</defs>
</svg>
